<svg width="150" height="32" viewBox="0 0 150 32" fill="none" xmlns="http://www.w3.org/2000/svg">
  <!-- Right side background -->
  <path d="M145 0H31V32H145C147.761 32 150 29.7614 150 27V5C150 2.23858 147.761 0 145 0Z" fill="#0F1418"/>
  <!-- Left side background -->
  <path d="M31 0H5C2.23858 0 0 2.23858 0 5V27C0 29.7614 2.23858 32 5 32H31V0Z" fill="#fff"/>
  <!-- Jetpack Compose logo -->
  <g transform="translate(4,4) scale(0.1875)">
    <path d="M41.226 76.778a4.002 4.002 0 0 1-.47-1.29c.09.452.25.887.47 1.29zm.578.713c.222.22.472.411.749.548l18.88 10.565-18.88-10.565a2.899 2.899 0 0 1-.747-.548z" fill="#083042"/>
    <path d="M64.342 101.967h-.14a8.301 8.301 0 0 1-4.014-1.016l-28.182-15.75c-1.663-.932-2.686-2.66-2.686-4.527V48.628c0-1.373.249-2.69.83-3.842L8.114 32.522c-.913 1.92-1.383 4.088-1.356 6.366v52.927a8.675 8.675 0 0 0 4.458 7.49l46.481 26.012c2.05 1.152 4.347 1.701 6.617 1.701v-.027c.055-3.32.028-16.628.028-25.023z" fill="#083042"/>
    <path d="M30.122 44.757a7.214 7.214 0 0 1 2.825-3.072l26.52-15.503a8.065 8.065 0 0 1 8.03-.082l26.798 15.009a8.993 8.993 0 0 1 3.018 2.743L118.99 31.04a14.913 14.913 0 0 0-4.955-4.5L69.766 1.764a13.32 13.32 0 0 0-13.233.137L12.765 27.472a11.704 11.704 0 0 0-4.651 5.049l22.009 12.236z" fill="#3ddc84"/>
    <path d="M118.962 31.04 97.285 43.852c.83 1.207 1.329 2.633 1.355 4.089v30.51a7.881 7.881 0 0 1-3.93 6.914L68.188 100.87a8.07 8.07 0 0 1-3.849 1.097c.029 8.369.029 21.677-.027 24.997v.027a13.533 13.533 0 0 0 6.617-1.812l43.769-25.599c4.07-2.387 6.562-6.723 6.506-11.415V37.817c-.028-2.442-.858-4.774-2.242-6.777z" fill="#4285f4"/>
    <path d="M41.198 51.178a5.508 5.508 0 0 0-.415 1.675c-.028.218-.028.438-.028.686v21.483c0 .164 0 .302.028.467.056.465.222.905.47 1.29.167.274.36.492.555.712.222.22.47.411.746.55l18.882 10.563a5.49 5.49 0 0 0 2.684.685h.195a5.155 5.155 0 0 0 2.492-.74L84.58 78.15c.111-.055.194-.138.305-.192.194-.137.388-.275.554-.44.26-.236.501-.492.719-.768.138-.192.277-.383.388-.576.082-.136.139-.274.193-.412.056-.135.14-.301.195-.465.027-.056.027-.111.055-.165a5.403 5.403 0 0 0 .249-1.647V53.044c0-.383-.056-.74-.138-1.096-.055-.248-.14-.468-.222-.688l-.166-.328c-.055-.138-.14-.247-.222-.385l-.166-.246c-.138-.193-.277-.357-.415-.549a5.607 5.607 0 0 0-1.606-1.29L66.337 38.394a6.145 6.145 0 0 0-.97-.44 5.86 5.86 0 0 0-1.385-.246h-.36c-.137 0-.248 0-.386.026a5.658 5.658 0 0 0-.942.165c-.055.027-.11.027-.166.056-.415.11-.803.301-1.191.52l-17.773 10.4a4.548 4.548 0 0 0-1.33 1.18c-.137.192-.276.384-.387.576-.055.11-.11.192-.166.302l-.083.246Z" fill="#d6f0ff"/>
  </g>
  <!-- Text -->
  <text x="40" y="21" font-family="Arial, Helvetica, sans-serif" font-size="13" fill="white" font-weight="bold">Jetpack Compose</text>
  <!-- Overlay gradient -->
  <path d="M145 0H5C2.23858 0 0 2.23858 0 5V27C0 29.7614 2.23858 32 5 32H145C147.761 32 150 29.7614 150 27V5C150 2.23858 147.761 0 145 0Z" fill="url(#paint0_linear)"/>
  <defs>
    <linearGradient id="paint0_linear" x1="0" y1="0" x2="0" y2="32" gradientUnits="userSpaceOnUse">
      <stop stop-color="#BBBBBB" stop-opacity="0.1"/>
      <stop offset="1" stop-opacity="0.1"/>
    </linearGradient>
  </defs>
</svg>
